<?xml version="1.0" encoding="iso-8859-1"?>
<!-- Generator: Adobe Illustrator 16.0.0, SVG Export Plug-In . SVG Version: 6.00 Build 0)  -->
<!DOCTYPE svg PUBLIC "-//W3C//DTD SVG 1.1//EN" "http://www.w3.org/Graphics/SVG/1.1/DTD/svg11.dtd">
<svg version="1.1" id="Capa_1" xmlns="http://www.w3.org/2000/svg" xmlns:xlink="http://www.w3.org/1999/xlink" x="0px" y="0px"
	 width="47.748px" height="47.748px" viewBox="0 0 47.748 47.748" style="enable-background:new 0 0 47.748 47.748;"
	 xml:space="preserve">
<g>
	<g id="_x36__41_">
		<g>
			<path d="M42.982,35.08c0.872,0.051,1.526-0.645,1.708-1.432c0.037-0.093,0.055-0.201,0.048-0.326
				c-0.057-0.994-0.762-1.699-1.756-1.757c-0.703-0.041-1.259,0.403-1.546,0.989c-4.679,0-9.355,0-14.033,0
				c3.415-3.664,6.83-7.328,10.245-10.993c0.093,0.02,0.186,0.038,0.285,0.039c0.908,0.015,1.866-0.628,1.883-1.623
				c0.016-0.91-0.628-1.866-1.623-1.883c-0.995-0.017-1.749,0.634-1.88,1.622c-0.018,0.124-0.007,0.233,0.022,0.329
				c0.027,0.177,0.083,0.349,0.155,0.513c-3.726,3.999-7.452,7.998-11.179,11.996c-0.11,0-0.223,0-0.332,0
				c0-5.512,0-11.022,0-16.535c0.48-0.244,0.827-0.731,0.95-1.266c0.036-0.093,0.056-0.202,0.048-0.326
				c-0.059-0.996-0.763-1.699-1.757-1.757c-0.992-0.057-1.703,0.849-1.756,1.757c-0.04,0.698,0.399,1.251,0.978,1.54
				c0,5.529,0,11.058,0,16.587c-0.121,0-0.242,0-0.363,0c-3.679-3.946-7.356-7.891-11.033-11.839
				c0.096-0.191,0.164-0.396,0.196-0.608c0.03-0.095,0.04-0.205,0.023-0.329c-0.131-0.988-0.885-1.639-1.88-1.622
				c-0.995,0.017-1.639,0.973-1.623,1.883c0.016,0.994,0.974,1.637,1.883,1.623c0.06-0.001,0.113-0.016,0.17-0.023
				c3.392,3.638,6.782,7.276,10.174,10.916c-4.8,0-9.6,0-14.399,0c-0.285-0.565-0.84-0.937-1.547-0.979
				c-0.992-0.057-1.705,0.85-1.757,1.758c-0.058,0.992,0.849,1.705,1.757,1.756c0.707,0.041,1.267-0.409,1.552-1
				c5.275,0,10.551,0,15.827,0c0.411,0.441,0.823,0.884,1.234,1.326c0.17,0.181,0.359,0.244,0.538,0.224
				c0.168,0.019,0.346-0.043,0.509-0.202c0.023-0.018,0.043-0.037,0.064-0.059c0.399-0.43,0.801-0.858,1.2-1.289
				c5.143,0,10.283,0,15.426,0C41.691,34.664,42.333,35.043,42.982,35.08z"/>
			<path d="M22.493,18.778v-1.236c-1.118-0.511-1.998-1.572-2.087-3.213c-0.112-2.091,1.771-3.593,3.698-3.696
				c2.09-0.113,3.591,1.77,3.694,3.696c-0.083,1.523-0.845,2.555-1.849,3.103v1.363c1.711-0.736,2.846-2.587,2.946-4.466
				c-0.333-6.174-9.256-6.174-9.589,0C19.194,16.441,20.661,18.089,22.493,18.778z"/>
			<path d="M1.104,33.25c-0.112-2.092,1.77-3.594,3.696-3.696c1.478-0.08,2.648,0.844,3.252,2.067h1.214
				c-1.665-4.486-8.961-3.943-9.26,1.629c-0.146,2.707,2.3,4.66,4.794,4.793c2.092,0.113,3.728-1.321,4.429-3.129H8.054
				C6.491,37.918,1.325,37.369,1.104,33.25z"/>
			<path d="M38.445,31.676h1.104c0.589-1.275,1.982-2.119,3.405-2.196c2.091-0.112,3.593,1.771,3.697,3.696
				c-0.219,4.058-5.229,4.646-6.873,1.793h-1.312c0.722,1.742,2.59,2.9,4.487,3.002c2.709,0.146,4.66-2.301,4.795-4.795
				C47.447,27.551,40.018,27.053,38.445,31.676z"/>
			<path d="M10.896,24.505c0.45-0.01,0.872-0.092,1.268-0.23l-0.95-1.052c-1.893,0.34-4.032-0.675-4.359-3.224
				c-0.268-2.078,1.499-3.714,3.412-3.961c2.077-0.267,3.713,1.499,3.961,3.413c0.014,0.689-0.131,1.279-0.369,1.788l0.784,0.866
				c0.456-0.829,0.697-1.788,0.68-2.735c-0.79-6.134-9.689-5.472-9.563,0.711C5.814,22.792,8.398,24.557,10.896,24.505z"/>
			<path d="M34.535,21.239c-0.238-0.509-0.383-1.099-0.369-1.788c0.248-1.914,1.884-3.679,3.961-3.413
				c1.913,0.247,3.681,1.883,3.412,3.961c-0.327,2.548-2.467,3.563-4.358,3.224l-0.95,1.052c0.396,0.139,0.816,0.221,1.268,0.23
				c2.498,0.052,5.082-1.712,5.139-4.424c0.126-6.183-8.773-6.845-9.563-0.711c-0.018,0.947,0.224,1.906,0.68,2.735L34.535,21.239z"
				/>
		</g>
	</g>
</g>
<g>
</g>
<g>
</g>
<g>
</g>
<g>
</g>
<g>
</g>
<g>
</g>
<g>
</g>
<g>
</g>
<g>
</g>
<g>
</g>
<g>
</g>
<g>
</g>
<g>
</g>
<g>
</g>
<g>
</g>
</svg>
