<?xml version="1.0" encoding="UTF-8" standalone="no"?>
<svg xmlns="http://www.w3.org/2000/svg" xmlns:xlink="http://www.w3.org/1999/xlink" version="1.1" viewBox="0 0 327 170" width="327" height="170">
<!-- Copyright Tani GmbH, www.tanindiustrie.de -->
	<defs id="defs3178">
		<linearGradient id="letterGrad" x1="0%" y1="0%" x2="0%" y2="100%">
			<stop offset="0%" style="stop-color:#737373; stop-opacity:1" />
			<stop offset="10%" style="stop-color:#737373; stop-opacity:1" />
			<stop offset="60%" style="stop-color:#3b3b3b; stop-opacity:1" />
			<stop offset="100%" style="stop-color:#3b3b3b; stop-opacity:1" />
		</linearGradient>
		<linearGradient id="innerGrad" x1="0%" y1="100%" x2="100%" y2="0%">
			<stop offset="0%" style="stop-color:rgb(255,255,0); stop-opacity:1" />
			<stop offset="65%" style="stop-color:rgb(255,200,0); stop-opacity:1" />
			<stop offset="100%" style="stop-color:rgb(255,140,0); stop-opacity:1" />
		</linearGradient>
		<linearGradient id="middleGrad" x1="0%" y1="100%" x2="100%" y2="0%">
			<stop offset="0%" style="stop-color:rgb(255,255,0); stop-opacity:1" />
			<stop offset="65%" style="stop-color:rgb(255,140,0); stop-opacity:1" />
			<stop offset="100%" style="stop-color:rgb(255,220,0); stop-opacity:1" />
		</linearGradient>
		<linearGradient id="outerGrad" x1="0%" y1="100%" x2="100%" y2="0%">
			<stop offset="0%" style="stop-color:rgb(255,255,0); stop-opacity:1" />
			<stop offset="65%" style="stop-color:rgb(255,128,0); stop-opacity:1" />
			<stop offset="100%" style="stop-color:rgb(255,160,0); stop-opacity:1" />
		</linearGradient>
		<path id="circlearrow" d="m 330,130 0,128.87893 a 295,295 0 0 1 332.51635,-5.11582 L 643,280 810,280 810,92.105263 790.45558,117.8216 A 480,480 0 0 0 194.20185,130 z" style="stroke:none;" />
	</defs>
	<g style="fill:none;stroke-linecap:round;stroke-linejoin:round;stroke-opacity:1">
		<g style="stroke-width:10">
			<path style="stroke:url(#innerGrad)" d="m 147,126 43,0 c 4,0 10,4 14,6 2,1 11,1 13,0 4,-2 10,-6 14,-6 l 58,0 0,-35" />
			<path style="stroke:url(#middleGrad)" d="m 137,140 53,0 c 4,0 10,4 14,6 2,1 11,1 13,0 4,-2 10,-6 14,-6 l 73,0 0,-55" />
			<path style="stroke:url(#outerGrad)" d="m 13,154 20,0 c 4,0 10,4 14,6 2,1 11,1 13,0 4,-2 10,-6 14,-6 l 0,0 32,0 c 4,0 10,4 14,6 2,1 11,1 13,0 4,-2 10,-6 14,-6 l 43,0 c 4,0 10,4 14,6 2,1 11,1 13,0 4,-2 10,-6 14,-6 l 89,0 0,-148" />
		</g>
		<g style="stroke:#fffff0;stroke-width:3">
			<path d="m 144,126 46,0 c 4,0 10,4 14,6 2,1 11,1 13,0 4,-2 10,-6 14,-6 l 55,0 c 1.5708,0 3,-1.429204 3,-3 l 0,-35"/>
			<path d="m 134,140 56,0 c 4,0 10,4 14,6 2,1 11,1 13,0 4,-2 10,-6 14,-6 l 70,0 c 1.5708,0 3,-1.4292 3,-3 l 0,-55" />
			<path d="m 10,154 23,0 c 4,0 10,4 14,6 2,1 11,1 13,0 4,-2 10,-6 14,-6 l 0,0 32,0 c 4,0 10,4 14,6 2,1 11,1 13,0 4,-2 10,-6 14,-6 l 43,0 c 4,0 10,4 14,6 2,1 11,1 13,0 4,-2 10,-6 14,-6 l 86,0 a 3,3 0 0 0 3,-3 l 0,-148" />
		</g>
	</g>
	<g transform="matrix(0.14954576,0,0,0.14954576,-1.3550591,-0.83910961)">
		<g>
			<animateTransform attributeName="transform" type="rotate" begin="0" dur="60" from="0 500 500" to="360 500 500" repeatCount="indefinite" />
			<use style="fill:#ffc800;" xlink:href="#circlearrow" />
			<use style="fill:#ff8c00;" transform="matrix(0,1,-1,0,1000,0)" xlink:href="#circlearrow" />
			<use style="fill:#ffc800;" transform="matrix(-1,0,0,-1,1000,1000)" xlink:href="#circlearrow" />
			<use style="fill:#ff8c00;" transform="matrix(0,-1,1,0,0,1000)" xlink:href="#circlearrow" />
		</g>
	</g>
	<g style="fill:none;stroke-linecap:round;stroke-linejoin:round;stroke:url(#letterGrad)">
		<path style="stroke-width:15px;" d="m 155,72 0,-60 20,0 a 15,15 0 0 1 0,30 l -20,0 m 55,-30 0,60 35,0 m 60,-10 a 30,30 0 1 1 0,-40" />
		<path style="stroke-width:5px;" d="m 150,103 20,0 a 10,10 0 1 0 -20,0 10,10 0 0 0 18,6 m 7,4 0,-20 m 0,10 a 10,10 0 0 1 20,0 l 0,10 m 5,-10 a 10,10 0 0 0 20,0 10,10 0 0 0 -20,0 m 20,-10 0,20 a 10,10 0 0 1 -18,6 m 24,-26 0,20 m 0,-26 0,1 m 6,25 0,-20 m 0,10 a 10,10 0 0 1 20,0 l 0,10 m 5,-10 20,0 a 10,10 0 1 0 -20,0 10,10 0 0 0 18,6" />
	</g>
 <g >
  <path id="fromStructure" fill="#000" d="m45.65,104.32c-0.3305-0.86125,0.2862-3.0208,1.3704-4.7991,2.6073-4.2762,2.5608-4.6129-1.6035-11.603l-3.5823-6.0136,3.9548-6.7503,3.9548-6.7503-2.8725-4.6684c-3.2586-5.296-3.4353-6.2352-1.4784-7.8593,1.7122-1.421,3.4785,0.13367,6.7357,5.9291,2.2282,3.9646,2.2667,3.983,8.3437,3.983h6.1051l3.1024-5.4014,3.1024-5.4014-2.881-5.0445c-2.8631-5.0131-2.9721-8.1526-0.28293-8.1526,0.77299,0,2.9887,2.475,4.9237,5.5l3.5183,5.5,5.7193-0.001,5.7193-0.001,2.846-5.0672c3.0559-5.441,5.0868-6.9003,6.9712-5.0096,0.91086,0.91391,0.46753,2.4962-1.9284,6.8828l-3.1112,5.696,3.3223,5.5c1.8272,3.025,3.3398,6.3193,3.3612,7.3208,0.0214,1.0014-1.4236,4.4762-3.2111,7.7218l-3.25,5.901,2.837,5.0803c2.9683,5.3155,2.9498,7.9768-0.0556,7.975-1.096-0.00062-2.8617-1.9245-4.5891-5l-2.8077-4.999h-6.3598-6.3598l-2.9998,5.1958-2.9997,5.1957,2.0903,3.632c2.1954,3.8146,1.8763,6.9765-0.70419,6.9765-0.83108,0-2.4294-1.8-3.5517-4l-2.0406-4h-6.3121c-6.1918,0-6.3582,0.0712-8.73,3.7364-2.6326,4.0682-5.3184,5.2665-6.2664,2.7959zm23.849-16.964,3.4749-5.4321-3.198-5.5679-3.198-5.5679-6.0393,0.0197-6.0393,0.0197-3.2005,5.4765-3.2005,5.4765,3.1612,5.5038,3.1612,5.5038,5.8017,0,5.8017,0,3.4749-5.4321zm23.294-13.693,2.959-5.1251-3.1103-5.4152-3.1103-5.4152-6.322,0.29036-6.322,0.29036-2.8874,5.0089-2.8874,5.0089,3.0259,5.2411,3.0259,5.2411,6.3349,0,6.3349,0,2.959-5.1252z"/>
 </g>
</svg>
